<?xml version="1.0" encoding="utf-8"?>
<!-- Generator: Adobe Illustrator 24.1.0, SVG Export Plug-In . SVG Version: 6.00 Build 0)  -->
<svg version="1.1" id="Layer_1" xmlns="http://www.w3.org/2000/svg" xmlns:xlink="http://www.w3.org/1999/xlink" x="0px" y="0px"
	 viewBox="0 0 1366 1366" style="enable-background:new 0 0 1366 1366;" xml:space="preserve">
<style type="text/css">
	.st0{fill:url(#SVGID_1_);}
	.st1{fill:url(#SVGID_2_);}
</style>
<linearGradient id="SVGID_1_" gradientUnits="userSpaceOnUse" x1="296.3405" y1="892.6558" x2="688.2787" y2="339.8804">
	<stop  offset="0" style="stop-color:#000000"/>
	<stop  offset="0.1952" style="stop-color:#030303"/>
	<stop  offset="0.3292" style="stop-color:#0C0C0C"/>
	<stop  offset="0.4448" style="stop-color:#1B1B1B"/>
	<stop  offset="0.5501" style="stop-color:#313131"/>
	<stop  offset="0.6482" style="stop-color:#4D4D4D"/>
	<stop  offset="0.7413" style="stop-color:#6F6F6F"/>
	<stop  offset="0.8302" style="stop-color:#989898"/>
	<stop  offset="0.9151" style="stop-color:#C8C8C8"/>
	<stop  offset="0.9954" style="stop-color:#FCFCFC"/>
	<stop  offset="1" style="stop-color:#FFFFFF"/>
</linearGradient>
<path class="st0" d="M615.06,1127.46v129.89c-22.47-2.35-44.59-5.89-66.3-10.54c-22.57-4.83-44.69-10.87-66.3-18.04
	c-4.12-1.37-8.23-2.78-12.31-4.23c-18.4-6.54-36.41-13.9-53.99-22.04c-22.87-10.61-45.01-22.53-66.3-35.7
	c-4.53-2.79-9.02-5.64-13.47-8.56c-18.29-11.94-35.92-24.81-52.83-38.54c-10.97-8.9-21.63-18.16-31.97-27.76
	c-11.88-11.03-23.33-22.51-34.33-34.41c-9.54-10.32-18.73-20.95-27.57-31.89c-13.81-17.07-26.74-34.88-38.73-53.36
	c-2.78-4.27-5.51-8.59-8.18-12.94c-13.11-21.3-24.99-43.43-35.54-66.3c-8.38-18.16-15.92-36.79-22.58-55.83
	c-1.22-3.48-2.41-6.97-3.56-10.47c-7.13-21.61-13.13-43.73-17.92-66.3c-4.62-21.71-8.12-43.83-10.43-66.3
	c-2.24-21.63-3.39-43.58-3.39-65.8v-0.5c0.02-22.39,1.2-44.51,3.49-66.3c2.35-22.47,5.89-44.59,10.54-66.3
	c4.83-22.57,10.87-44.69,18.04-66.3c1.05-3.17,2.13-6.33,3.23-9.47c6.78-19.39,14.48-38.35,23.04-56.83
	c10.61-22.87,22.53-45.01,35.7-66.3c2.47-4.01,4.99-7.99,7.56-11.94c12.23-18.84,25.43-36.98,39.54-54.36
	c0.92-1.14,1.84-2.27,2.76-3.39l2.26,3.39l21.74,32.59l22.49,33.71l28.28,42.39c-5.48,7.81-10.72,15.78-15.72,23.91
	c-13.06,21.12-24.58,43.27-34.43,66.3h-0.62v1.44c-8.89,20.94-16.41,42.6-22.43,64.86c-5.83,21.56-10.27,43.7-13.22,66.3
	c-2.8,21.54-4.25,43.5-4.25,65.8v0.5c0.02,22.48,1.51,44.61,4.38,66.3c2.99,22.61,7.48,44.74,13.37,66.3
	c5.97,21.91,13.39,43.24,22.15,63.86v2.44h1.05c9.91,23.04,21.5,45.19,34.61,66.3c9.44,15.21,19.67,29.89,30.64,43.97
	c5.92,7.62,12.07,15.07,18.43,22.33c14.87,17,30.87,33,47.87,47.87c7.26,6.36,14.71,12.51,22.33,18.43
	c14.08,10.97,28.76,21.2,43.97,30.64c21.11,13.11,43.26,24.7,66.3,34.61v1.05h2.44c20.62,8.76,41.95,16.18,63.86,22.15
	C570.32,1119.98,592.45,1124.47,615.06,1127.46z"/>
<linearGradient id="SVGID_2_" gradientUnits="userSpaceOnUse" x1="806.2542" y1="1142.9384" x2="1433.3881" y2="258.4517">
	<stop  offset="0" style="stop-color:#000000"/>
	<stop  offset="0.1952" style="stop-color:#030303"/>
	<stop  offset="0.3292" style="stop-color:#0C0C0C"/>
	<stop  offset="0.4448" style="stop-color:#1B1B1B"/>
	<stop  offset="0.5501" style="stop-color:#313131"/>
	<stop  offset="0.6482" style="stop-color:#4D4D4D"/>
	<stop  offset="0.7413" style="stop-color:#6F6F6F"/>
	<stop  offset="0.8302" style="stop-color:#989898"/>
	<stop  offset="0.9151" style="stop-color:#C8C8C8"/>
	<stop  offset="0.9954" style="stop-color:#FCFCFC"/>
	<stop  offset="1" style="stop-color:#FFFFFF"/>
</linearGradient>
<path class="st1" d="M1314.36,627.84v0.5c0,22.22-1.15,44.17-3.39,65.8c-2.31,22.47-5.81,44.59-10.43,66.3
	c-4.79,22.57-10.79,44.69-17.92,66.3c-1.47,4.46-2.99,8.9-4.56,13.31c-6.41,18.05-13.62,35.73-21.58,52.99
	c-10.55,22.87-22.43,45-35.54,66.3c-2.99,4.87-6.05,9.69-9.18,14.47c-11.71,17.93-24.3,35.23-37.73,51.83
	c-9.15,11.32-18.68,22.32-28.57,32.97c-10.69,11.52-21.81,22.64-33.33,33.33c-10.65,9.89-21.65,19.42-32.97,28.57
	c-16.6,13.43-33.9,26.02-51.83,37.73c-4.78,3.13-9.6,6.19-14.47,9.18c-21.3,13.11-43.43,24.99-66.3,35.54
	c-17.26,7.96-34.94,15.17-52.99,21.58c-4.41,1.57-8.85,3.09-13.31,4.56c-21.61,7.13-43.73,13.13-66.3,17.92
	c-21.71,4.62-43.83,8.12-66.3,10.43v-129.86c22.6-2.95,44.74-7.39,66.3-13.22c22.26-6.02,43.92-13.54,64.86-22.43h1.44v-0.62
	c23.03-9.85,45.18-21.37,66.3-34.43c15.57-9.6,30.58-20.04,44.97-31.25c7.27-5.65,14.38-11.51,21.33-17.56
	c17.38-15.11,33.71-31.4,48.87-48.74c6-6.86,11.82-13.87,17.43-21.05c11.35-14.47,21.92-29.57,31.64-45.25
	c13.11-21.11,24.7-43.26,34.61-66.3h0.05v-0.12c9.2-21.34,16.95-43.44,23.15-66.18c5.89-21.56,10.38-43.69,13.37-66.3
	c2.87-21.69,4.36-43.82,4.38-66.3v-0.5c0-22.3-1.45-44.26-4.25-65.8c-2.95-22.6-7.39-44.74-13.22-66.3
	c-6.16-22.78-13.88-44.92-23.05-66.3c-0.12-0.3-0.24-0.59-0.38-0.88c-9.76-22.72-21.16-44.57-34.05-65.42
	c-5.09-8.27-10.43-16.38-16-24.32l27.89-41.98l22.16-33.34l21.91-32.96h5.85c13.73,16.91,26.6,34.54,38.54,52.83
	c2.92,4.45,5.77,8.94,8.56,13.47c13.17,21.29,25.09,43.43,35.7,66.3c8.14,17.58,15.5,35.59,22.04,53.99
	c1.45,4.08,2.86,8.19,4.23,12.31c7.17,21.61,13.21,43.73,18.04,66.3c4.65,21.71,8.19,43.83,10.54,66.3
	C1313.16,583.33,1314.34,605.45,1314.36,627.84z"/>
<path d="M681.36,627.34v331l-43.56-65.3l-22.74-34.09l-21.49-32.21l-44.23-66.3l-0.58-0.87l-43.64-65.43l-22.66-33.96l-21.57-32.34
	l-44.23-66.3l-0.5-0.75l-43.73-65.55l-22.57-33.84l-21.66-32.46l-44.22-66.3l-0.42-0.62l-15.53-23.29l-28.28-42.39l-22.49-33.71
	l-21.74-32.59l-2.26-3.39c7.74-9.4,15.74-18.57,24-27.5c11.33-12.26,23.15-24.08,35.41-35.41c10-9.24,20.3-18.17,30.89-26.76
	c15.21-12.35,31-24,47.33-34.91l18.97,28.44l22.17,33.23l29.45,44.13l14.68,22v0.17h0.11l44.24,66.3l21.95,32.9l22.28,33.4
	l44.02,65.97v0.33h0.22l44.24,66.3l21.84,32.73l22.4,33.57L681.36,627.34z"/>
<path d="M1169.99,226.09l-2.62,3.95L1145.46,263l-22.16,33.34l-27.89,41.98l-16.17,24.32h-0.08v0.12l-43.98,66.18l-22.32,33.59
	l-21.74,32.71l-44.06,66.3h-0.5v0.75L903,627.84l-22.74,34.21l-21.32,32.09l-44.06,66.3h-0.92v1.38l-43.15,64.92l-23.15,34.84
	l-20.91,31.46l-44.06,66.3h-0.66l-0.67-1v-330.5h0.33l0.67,1l0.66-1l44.02-66.3l20.62-31.06l23.39-35.24l42.91-64.63l1.11-1.67
	l44.01-66.3l21.18-31.9l22.84-34.4l43.46-65.46l0.56-0.84l14.84-22.36l29.17-43.94l21.73-32.73l19.45-29.29
	c16.16,10.77,31.79,22.27,46.85,34.45c10.94,8.84,21.57,18.03,31.89,27.57c11.9,11,23.38,22.45,34.41,34.33
	C1153.9,207.16,1162.09,216.51,1169.99,226.09z"/>
</svg>
