<svg id="Layer_1" data-name="Layer 1" xmlns="http://www.w3.org/2000/svg" xmlns:xlink="http://www.w3.org/1999/xlink" viewBox="0 0 1265 1155.73"><defs><style>.cls-1{fill:url(#linear-gradient);}.cls-2{fill:url(#linear-gradient-2);}.cls-3{fill:url(#linear-gradient-3);}.cls-4{fill:url(#linear-gradient-4);}</style><linearGradient id="linear-gradient" x1="184.16" y1="1050.87" x2="576.1" y2="498.1" gradientUnits="userSpaceOnUse"><stop offset="0"/><stop offset="0.2" stop-color="#030303"/><stop offset="0.33" stop-color="#0c0c0c"/><stop offset="0.44" stop-color="#1b1b1b"/><stop offset="0.55" stop-color="#313131"/><stop offset="0.65" stop-color="#4d4d4d"/><stop offset="0.74" stop-color="#6f6f6f"/><stop offset="0.83" stop-color="#989898"/><stop offset="0.92" stop-color="#c8c8c8"/><stop offset="1" stop-color="#fcfcfc"/><stop offset="1" stop-color="#fff"/></linearGradient><linearGradient id="linear-gradient-2" x1="732.62" y1="1246.79" x2="1359.76" y2="362.3" xlink:href="#linear-gradient"/><linearGradient id="linear-gradient-3" x1="717.62" y1="828.85" x2="266.29" y2="191.53" gradientUnits="userSpaceOnUse"><stop offset="0.21" stop-color="#fff"/><stop offset="0.24" stop-color="#e6e6e6"/><stop offset="0.33" stop-color="#b1b1b1"/><stop offset="0.41" stop-color="#818181"/><stop offset="0.5" stop-color="#5a5a5a"/><stop offset="0.59" stop-color="#393939"/><stop offset="0.68" stop-color="#202020"/><stop offset="0.78" stop-color="#0e0e0e"/><stop offset="0.88" stop-color="#030303"/><stop offset="1"/></linearGradient><linearGradient id="linear-gradient-4" x1="820.68" y1="582.46" x2="1108.63" y2="176.35" xlink:href="#linear-gradient"/></defs><path class="cls-1" d="M615.06,1127.46v129.89a629.15,629.15,0,0,1-132.6-28.58q-6.18-2.05-12.31-4.23-27.6-9.81-54-22a629.93,629.93,0,0,1-66.3-35.7q-6.8-4.18-13.47-8.56a631.32,631.32,0,0,1-52.83-38.54q-16.46-13.35-32-27.76-17.82-16.55-34.33-34.41-14.31-15.48-27.57-31.89A630.16,630.16,0,0,1,151,972.28q-4.17-6.4-8.18-12.94A629.73,629.73,0,0,1,107.24,893Q94.67,865.8,84.66,837.21,82.83,832,81.1,826.74a629.32,629.32,0,0,1-28.35-132.6,638.6,638.6,0,0,1-3.39-65.8v-.5a639.68,639.68,0,0,1,3.49-66.3,629.15,629.15,0,0,1,28.58-132.6q1.57-4.76,3.23-9.47,10.17-29.09,23-56.83a629.93,629.93,0,0,1,35.7-66.3q3.71-6,7.56-11.94A633.5,633.5,0,0,1,190.5,230l2.76-3.39,2.26,3.39,21.74,32.59,22.49,33.71L268,338.73q-8.22,11.72-15.72,23.91a499.59,499.59,0,0,0-34.43,66.3h-.62v1.44a500.76,500.76,0,0,0-35.65,131.16,510.24,510.24,0,0,0-4.25,65.8v.5a508.7,508.7,0,0,0,4.38,66.3A501.68,501.68,0,0,0,217.26,824.3v2.44h1.05A503.86,503.86,0,0,0,283.56,937q8.88,11.43,18.43,22.33a507.72,507.72,0,0,0,47.87,47.87q10.89,9.54,22.33,18.43a503.86,503.86,0,0,0,110.27,65.25v1h2.44a501.68,501.68,0,0,0,130.16,35.52Z" transform="translate(-49.36 -101.72)"/><path class="cls-2" d="M1314.36,627.84v.5a638.6,638.6,0,0,1-3.39,65.8,629.32,629.32,0,0,1-28.35,132.6q-2.2,6.69-4.56,13.31-9.61,27.08-21.58,53a629.73,629.73,0,0,1-35.54,66.3q-4.49,7.3-9.18,14.47a630.76,630.76,0,0,1-37.73,51.83q-13.72,17-28.57,33-16,17.28-33.33,33.33-16,14.83-33,28.57a630.76,630.76,0,0,1-51.83,37.73q-7.17,4.69-14.47,9.18a629.73,629.73,0,0,1-66.3,35.54q-25.89,11.94-53,21.58-6.62,2.36-13.31,4.56a629.32,629.32,0,0,1-132.6,28.35V1127.59a500.76,500.76,0,0,0,131.16-35.65h1.44v-.62a504.82,504.82,0,0,0,111.27-65.68q10.9-8.48,21.33-17.56a505.24,505.24,0,0,0,48.87-48.74q9-10.29,17.43-21.05a503.89,503.89,0,0,0,66.25-111.55h0v-.12A501.26,501.26,0,0,0,1182,694.14a508.7,508.7,0,0,0,4.38-66.3v-.5a510.24,510.24,0,0,0-4.25-65.8,503.73,503.73,0,0,0-13.22-66.3,497.86,497.86,0,0,0-23.05-66.3c-.12-.3-.24-.59-.38-.88a498.8,498.8,0,0,0-34-65.42q-7.64-12.4-16-24.32l27.89-42L1145.46,263l21.91-33h5.85a631.32,631.32,0,0,1,38.54,52.83q4.38,6.67,8.56,13.47a629.93,629.93,0,0,1,35.7,66.3q12.21,26.37,22,54,2.18,6.12,4.23,12.31a629.15,629.15,0,0,1,28.58,132.6A639.68,639.68,0,0,1,1314.36,627.84Z" transform="translate(-49.36 -101.72)"/><path class="cls-3" d="M681.36,627.34v331L637.8,893,615.06,859l-21.49-32.21-44.23-66.3-.58-.87-43.64-65.43-22.66-34-21.57-32.34-44.23-66.3-.5-.75-43.73-65.55L349.86,461.4,328.2,428.94,284,362.64l-.42-.62L268,338.73l-28.28-42.39-22.49-33.71L195.52,230l-2.26-3.39q11.61-14.1,24-27.5,17-18.39,35.41-35.41,15-13.86,30.89-26.76,22.82-18.52,47.33-34.91l19,28.44L372,163.74l29.45,44.13,14.68,22V230h.11l44.24,66.3,21.95,32.9,22.28,33.4,44,66v.33H549l44.24,66.3L615.06,528l22.4,33.57Z" transform="translate(-49.36 -101.72)"/><path class="cls-4" d="M1170,226.09l-2.62,3.95-21.91,33-22.16,33.34-27.89,42-16.17,24.32h-.08v.12l-44,66.18-22.32,33.59-21.74,32.71-44.06,66.3h-.5v.75L903,627.84l-22.74,34.21-21.32,32.09-44.06,66.3H814v1.38l-43.15,64.92-23.15,34.84L726.75,893l-44.06,66.3H682l-.67-1V627.84h.33l.67,1,.66-1,44-66.3,20.62-31.06,23.39-35.24L814,430.61l1.11-1.67,44-66.3,21.18-31.9,22.84-34.4,43.46-65.46.56-.84L962,207.68l29.17-43.94L1012.86,131l19.45-29.29q24.24,16.16,46.85,34.45,16.41,13.26,31.89,27.57,17.85,16.5,34.41,34.33Q1158.12,211.71,1170,226.09Z" transform="translate(-49.36 -101.72)"/></svg>